<svg id="visual" viewBox="0 0 900 600" width="900" height="600" xmlns="http://www.w3.org/2000/svg" xmlns:xlink="http://www.w3.org/1999/xlink" version="1.1"><rect x="0" y="0" width="900" height="600" fill="#04a9a2"></rect><g fill="#05ec18"><circle r="58" cx="463" cy="554"></circle><circle r="4" cx="500" cy="257"></circle><circle r="9" cx="670" cy="81"></circle><circle r="47" cx="259" cy="109"></circle><circle r="34" cx="355" cy="283"></circle><circle r="40" cx="45" cy="85"></circle><circle r="28" cx="784" cy="272"></circle><circle r="16" cx="778" cy="126"></circle><circle r="43" cx="893" cy="483"></circle><circle r="21" cx="349" cy="587"></circle><circle r="48" cx="53" cy="491"></circle><circle r="46" cx="205" cy="358"></circle><circle r="34" cx="359" cy="458"></circle><circle r="29" cx="892" cy="147"></circle><circle r="6" cx="558" cy="359"></circle><circle r="41" cx="617" cy="221"></circle><circle r="48" cx="34" cy="266"></circle><circle r="34" cx="368" cy="168"></circle><circle r="48" cx="722" cy="387"></circle><circle r="38" cx="632" cy="595"></circle><circle r="30" cx="454" cy="45"></circle><circle r="24" cx="160" cy="174"></circle><circle r="50" cx="178" cy="574"></circle><circle r="33" cx="151" cy="17"></circle><circle r="14" cx="751" cy="551"></circle><circle r="47" cx="71" cy="376"></circle><circle r="33" cx="885" cy="10"></circle><circle r="52" cx="875" cy="361"></circle><circle r="5" cx="532" cy="142"></circle><circle r="35" cx="640" cy="473"></circle><circle r="49" cx="333" cy="11"></circle><circle r="6" cx="764" cy="12"></circle><circle r="19" cx="3" cy="598"></circle><circle r="43" cx="569" cy="21"></circle><circle r="20" cx="884" cy="598"></circle><circle r="25" cx="240" cy="471"></circle></g></svg>